<svg width="106" height="22" viewBox="0 0 106 22" fill="none" xmlns="http://www.w3.org/2000/svg">
<path d="M105.505 10.7929H101.291L99.5948 20.4543H96.4942L98.1901 10.7929H93.959L94.4386 8.12061H105.984L105.505 10.7929Z" fill="#FF97AC"/>
<path d="M89.4004 20.4543L89.5032 17.7649H86.6425L85.8031 20.4543H82.5312L86.9337 8.12061H92.5867L92.6552 20.4543H89.4004ZM88.6981 11.1184L87.3448 15.4694H89.5889L89.7773 11.1184H88.6981Z" fill="#FF97AC"/>
<path d="M84.577 10.7929H80.363L78.6671 20.4543H75.5665L77.2624 10.7929H73.0312L73.5109 8.12061H85.0566L84.577 10.7929Z" fill="#FF97AC"/>
<path d="M64.5304 16.9419C64.5304 17.7299 65.0957 18.1239 66.2263 18.1239C67.3683 18.1239 67.9393 17.7699 67.9393 17.0619C67.9393 16.685 67.7452 16.3766 67.3569 16.1368C66.9686 15.897 66.4947 15.6972 65.9351 15.5373C65.3869 15.3774 64.833 15.1947 64.2735 14.9891C63.7253 14.7721 63.2571 14.4409 62.8688 13.9956C62.4805 13.5388 62.2864 12.9735 62.2864 12.2997C62.2864 9.43322 64.1307 8 67.8194 8C69.167 8 70.1834 8.25695 70.8686 8.77086C71.5652 9.27334 71.9135 9.97568 71.9135 10.8779C71.9135 11.209 71.8678 11.5288 71.7765 11.8372C71.6965 12.1341 71.6109 12.3454 71.5195 12.471L71.3825 12.6765H68.3504C68.6017 12.4139 68.7273 12.0827 68.7273 11.683C68.7273 10.9407 68.2419 10.5695 67.2712 10.5695C66.0493 10.5695 65.4383 10.9578 65.4383 11.7344C65.4383 12.1227 65.6324 12.431 66.0207 12.6594C66.409 12.8878 66.8772 13.0705 67.4254 13.2076C67.985 13.3332 68.5446 13.4931 69.1042 13.6872C69.6637 13.8814 70.1377 14.2068 70.526 14.6636C70.9142 15.109 71.1084 15.6914 71.1084 16.4109C71.1084 17.8613 70.6744 18.9405 69.8065 19.6485C68.9386 20.3451 67.6024 20.6934 65.798 20.6934C63.9937 20.6934 62.7603 20.3737 62.0979 19.7342C61.6069 19.2545 61.3613 18.5921 61.3613 17.7471C61.3613 17.4273 61.3956 17.079 61.4641 16.7021L61.5155 16.428H64.5989L64.5647 16.6336C64.5418 16.7478 64.5304 16.8506 64.5304 16.9419Z" fill="#FF97AC"/>
<path d="M60.9953 8.12061L58.8369 20.4543H55.7363L53.5779 13.705L52.4131 20.4543H49.3125L51.488 8.12061H54.6742L56.7984 14.4245L57.9118 8.12061H60.9953Z" fill="#FF97AC"/>
<path d="M45.9655 19.5636C45.0633 20.3173 43.7843 20.6941 42.1284 20.6941C40.4725 20.6941 39.3247 20.3116 38.6852 19.5464C38.2284 19.0211 38 18.2959 38 17.3709C38 16.9598 38.0457 16.5087 38.137 16.0176L39.5246 8.12061H42.608L41.2205 15.9491C41.1748 16.2346 41.1519 16.5315 41.1519 16.8399C41.1519 17.6393 41.6316 18.039 42.5909 18.039C43.1619 18.039 43.6187 17.8905 43.9613 17.5936C44.3039 17.2967 44.5437 16.7485 44.6808 15.9491L46.0683 8.12061H49.1517L47.7642 16.0176C47.4787 17.6164 46.8791 18.7984 45.9655 19.5636Z" fill="#FF97AC"/>
<path d="M30.9312 0C33.1549 2.00105e-07 34.7348 0.488905 35.6711 1.46668C36.3733 2.20979 36.7244 3.14849 36.7244 4.2827C36.7244 4.6738 36.6854 5.08448 36.6074 5.51469L36.1978 7.80265C35.9637 9.07376 35.5541 10.1005 34.9689 10.8827C34.4032 11.6649 33.7693 12.2222 33.0671 12.5547L35.7296 21.12H29.8194L27.3617 13.2293H25.5477L24.3481 21.12H18.7305L20.7426 9.68318H27.3462H27.4225H28.1849C29.2187 9.68317 29.956 9.43552 30.4046 8.94663C30.8532 8.43819 31.0775 7.77329 31.0775 6.95197C31.0775 5.36799 30.4143 4.57599 29.0879 4.57599L27.3509 4.57473H21.6414L22.4463 0H30.9312Z" fill="#FF375F"/>
<path d="M16.0115 21.12H0V9.68326H18.0237L16.0115 21.12Z" fill="url(#paint0_linear_1309_4733)"/>
<path d="M18.9226 4.57467H0V0H19.7274L18.9226 4.57467Z" fill="url(#paint1_linear_1309_4733)"/>
<defs>
<linearGradient id="paint0_linear_1309_4733" x1="4" y1="10.5" x2="21.5" y2="12.5" gradientUnits="userSpaceOnUse">
<stop stop-opacity="0"/>
<stop offset="1" stop-color="#FF375F"/>
</linearGradient>
<linearGradient id="paint1_linear_1309_4733" x1="4" y1="10.5" x2="21.5" y2="12.5" gradientUnits="userSpaceOnUse">
<stop stop-opacity="0"/>
<stop offset="1" stop-color="#FF375F"/>
</linearGradient>
</defs>
</svg>
